<svg xmlns="http://www.w3.org/2000/svg" version="1.1" xmlns:xlink="http://www.w3.org/1999/xlink" xmlns:svgjs="http://svgjs.com/svgjs" width="1440" height="220" preserveAspectRatio="none" viewBox="0 0 1440 220"><g mask="url(&quot;#SvgjsMask1109&quot;)" fill="none"><path d="M 0,210 C 57.6,189.8 172.8,125.8 288,109 C 403.2,92.2 460.8,132.4 576,126 C 691.2,119.6 748.8,62.2 864,77 C 979.2,91.8 1036.8,214.4 1152,200 C 1267.2,185.6 1382.4,44 1440,5L1440 220L0 220z" fill="rgba(163, 167, 170, 1)"></path><path d="M 0,124 C 96,105 288,12 480,29 C 672,46 768,212.4 960,209 C 1152,205.6 1344,51.4 1440,12L1440 220L0 220z" fill="rgba(244, 244, 244, 1)"></path></g><defs><mask id="SvgjsMask1109"><rect width="1440" height="220" fill="#ffffff"></rect></mask></defs></svg>