<svg xmlns="http://www.w3.org/2000/svg" version="1.1" xmlns:xlink="http://www.w3.org/1999/xlink" xmlns:svgjs="http://svgjs.com/svgjs" width="560" height="300" preserveAspectRatio="none" viewBox="0 0 560 300">
    <g mask="url(&quot;#SvgjsMask1235&quot;)" fill="none">
        <rect width="560" height="300" x="0" y="0" fill="rgba(83, 49, 126, 1)"></rect>
        <path d="M 0,66 C 37.4,60 112.2,38.6 187,36 C 261.8,33.4 299.4,58.6 374,53 C 448.6,47.4 522.8,17 560,8L560 300L0 300z" fill="rgba(83, 49, 126, 1)"></path>
        <path d="M 0,120 C 37.4,111.6 112.2,72 187,78 C 261.8,84 299.4,146.6 374,150 C 448.6,153.4 522.8,106 560,95L560 300L0 300z" fill="rgba(76, 44, 117, 1)"></path>
        <path d="M 0,220 C 37.4,206.2 112.2,156 187,151 C 261.8,146 299.4,189.6 374,195 C 448.6,200.4 522.8,181.4 560,178L560 300L0 300z" fill="rgba(255, 255, 255, 1)"></path>
        <path d="M 0,275 C 8,265.8 24,227.2 40,229 C 56,230.8 64,281.2 80,284 C 96,286.8 104,246 120,243 C 136,240 144,266.6 160,269 C 176,271.4 184,250.8 200,255 C 216,259.2 224,291.2 240,290 C 256,288.8 264,252.8 280,249 C 296,245.2 304,270.2 320,271 C 336,271.8 344,248.8 360,253 C 376,257.2 384,290.8 400,292 C 416,293.2 424,263 440,259 C 456,255 464,276.6 480,272 C 496,267.4 504,232.2 520,236 C 536,239.8 552,280 560,291L560 300L0 300z" fill="rgba(255, 255, 255, 1)"></path>
    </g>
    <defs>
        <mask id="SvgjsMask1235">
            <rect width="560" height="300" fill="#ffffff"></rect>
        </mask>
    </defs>
</svg>