<svg xmlns="http://www.w3.org/2000/svg" version="1.1" xmlns:xlink="http://www.w3.org/1999/xlink" xmlns:svgjs="http://svgjs.com/svgjs" width="1440" height="560" preserveAspectRatio="none" viewBox="0 0 1440 560"><g mask="url(&quot;#SvgjsMask1000&quot;)" fill="none"><rect width="1440" height="560" x="0" y="0" fill="#0e2a47"></rect><path d="M720 736.08C835.91 735.46 927.4 651.28 1010.87 570.87 1096.62 488.28 1189.13 398.97 1193.52 280 1198.01 158.14 1124.84 47.2 1033.11-33.11 947.29-108.21 833.9-140.14 720-134.46 611.95-129.09 508.76-84 436.58-3.42 368 73.18 350.73 177.22 348.86 280 346.92 385.3 359.53 492.3 426 574 499.44 664.23 603.65 736.69 720 736.08" fill="#1c538e"></path><path d="M720 575.11C795 574.71 854.2 520.24 908.21 468.21 963.69 414.77 1023.56 356.98 1026.39 280 1029.3 201.15 981.95 129.37 922.6 77.4 867.07 28.8 793.7 8.15 720 11.82 650.08 15.3 583.31 44.47 536.61 96.61 492.23 146.17 481.06 213.49 479.85 280 478.59 348.13 486.76 417.37 529.77 470.23 577.29 528.62 644.72 575.5 720 575.11" fill="#2774c6"></path><path d="M720 414.14C754.09 413.96 781 389.2 805.55 365.55 830.77 341.26 857.98 314.99 859.27 280 860.59 244.16 839.07 211.53 812.09 187.91 786.85 165.82 753.5 156.43 720 158.1 688.22 159.68 657.87 172.94 636.64 196.64 616.47 219.17 611.39 249.77 610.84 280 610.27 310.97 613.98 342.44 633.53 366.47 655.13 393.01 685.78 414.32 720 414.14" fill="#488fdb"></path></g><defs><mask id="SvgjsMask1000"><rect width="1440" height="560" fill="#ffffff"></rect></mask></defs></svg>